<?xml version="1.0" encoding="iso-8859-1"?>
<!-- Generator: Adobe Illustrator 19.0.0, SVG Export Plug-In . SVG Version: 6.00 Build 0)  -->
<svg version="1.1" id="Layer_1" xmlns="http://www.w3.org/2000/svg" xmlns:xlink="http://www.w3.org/1999/xlink" x="0px" y="0px"
	 viewBox="0 0 496 496" style="enable-background:new 0 0 496 496;" xml:space="preserve">
<path style="fill:#0EE0B8;" d="M404,0H92C78.4,0,64,12.8,64,25.6v320L222.4,496H404c13.6,0,28-12.8,28-26.4v-444
	C432,12.8,417.6,0,404,0z"/>
<path style="fill:#1364D8;" d="M404,0H92C78.4,0,64,12.8,64,25.6v320L222.4,496H404c13.6,0,28-12.8,28-26.4v-444
	C432,12.8,417.6,0,404,0z"/>
<path style="fill:#055AC1;" d="M432,384V25.6C432,12.8,417.6,0,404,0H92C78.4,0,66.4,11.2,66.4,24"/>
<path style="fill:#0053A5;" d="M432,384V25.6C432,12.8,417.6,0,404,0H208"/>
<path style="fill:#055AC1;" d="M200,352v119.2c0,1.6,1.6,3.2,1.6,4.8l19.2,18.4c1.6,0,3.2,1.6,4.8,1.6h125.6l-148-144H200z"/>
<path style="fill:#0053A5;" d="M200,351.2v120c0,1.6,1.6,3.2,1.6,4.8l19.2,18.4c1.6,0,3.2,1.6,4.8,1.6h64l-72.8-120.8L200,351.2z"/>
<path style="fill:#FFFFFF;" d="M222.4,496h1.6V370.4c0-13.6-12-26.4-25.6-26.4L64,345.6L222.4,496z"/>
<polyline style="fill:#D2F3FF;" points="64,345.6 222.4,496 224,496 224,368 "/>
<path style="fill:#40DBFF;" d="M80,345.6L80,345.6v-320C80,12.8,89.6,0,102.4,0H92C78.4,0,64,12.8,64,25.6v320H80L80,345.6z"/>
<g>
	<path style="fill:#FFFFFF;" d="M196,268l-36.8-144h20l17.6,72c4,18.4,8,40,10.4,48h0.8c2.4-8,7.2-29.6,12-48.8l19.2-71.2h19.2
		l17.6,72c4,17.6,8,40,10.4,48h0.8c3.2-16,7.2-30.4,12-48.8l19.2-71.2h19.2l-40.8,144h-19.2l-18.4-74.4c-4.8-18.4-7.2-29.6-9.6-45.6
		H248c-2.4,16-5.6,27.2-11.2,45.6L216,268H196z"/>
	<path style="fill:#FFFFFF;" d="M295.2,272H276c-1.6,0-3.2-1.6-4-3.2l-20-79.2c-1.6-8-3.2-14.4-4.8-20.8c-1.6,8-4,16-7.2,25.6
		l-20.8,74.4c0,2.4-1.6,3.2-3.2,3.2h-19.2c-1.6,0-3.2-1.6-4-3.2l-36.8-144c0-0.8,0-2.4,0.8-3.2s1.6-1.6,3.2-1.6h20
		c1.6,0,3.2,1.6,4,3.2l17.6,72c1.6,8,4,16.8,5.6,24.8c0.8,3.2,1.6,5.6,1.6,8.8c0-1.6,0.8-2.4,0.8-4c2.4-8.8,4.8-20,7.2-29.6L236,124
		c0.8-1.6,2.4-3.2,4-3.2h19.2c1.6,0,3.2,1.6,4,3.2l17.6,72c2.4,8.8,4,19.2,6.4,28.8c0,0.8,0,1.6,0.8,2.4c1.6-5.6,3.2-12,4.8-18.4
		c0.8-4,2.4-8.8,3.2-13.6l19.2-71.2c0.8-1.6,2.4-3.2,4-3.2h19.2c1.6,0,2.4,0.8,3.2,1.6c0.8,0.8,0.8,2.4,0.8,3.2l-40.8,144
		C299.2,271.2,297.6,272,295.2,272z M279.2,264h13.6L332,128h-10.4l-18.4,68.8c-0.8,4.8-2.4,8.8-3.2,13.6c-3.2,12.8-5.6,23.2-8,35.2
		c0,1.6-2.4,3.2-4,3.2s-4-1.6-4-3.2c-0.8-4-2.4-11.2-4-20s-4-19.2-5.6-28.8L255.2,128h-13.6l-18.4,68.8c-2.4,9.6-4.8,20-7.2,29.6
		c-1.6,8-3.2,15.2-4.8,19.2c-0.8,3.2-7.2,3.2-8,0c-1.6-4.8-3.2-13.6-5.6-24c-1.6-8-3.2-16.8-5.6-24.8L176,128h-11.2l34.4,136h13.6
		l20-71.2c5.6-19.2,8.8-29.6,11.2-45.6c0-1.6,1.6-3.2,4-3.2c2.4,0,4,1.6,4,3.2c1.6,14.4,4,24.8,8,40L279.2,264z"/>
</g>
<path style="opacity:0.1;enable-background:new    ;" d="M336.8,136h-19.2c-1.6,0-3.2,1.6-4,3.2l-19.2,71.2
	c-0.8,4.8-2.4,8.8-3.2,13.6c-1.6,5.6-3.2,11.2-4,16.8c-1.6-7.2-3.2-14.4-4.8-21.6l-19.2-80c-0.8-1.6-2.4-3.2-4-3.2H240
	c-1.6,0-3.2,1.6-4,3.2l-20,71.2c-2.4,9.6-4.8,20.8-7.2,29.6c0,1.6-0.8,2.4-0.8,4c-0.8-2.4-0.8-5.6-1.6-8.8c-1.6-8-3.2-16.8-5.6-24.8
	l-17.6-72c-0.8-1.6-2.4-3.2-4-3.2h-20c-1.6,0-2.4,0.8-3.2,1.6s-0.8,2.4-0.8,3.2L192,284c0.8,1.6,2.4,3.2,4,3.2h20
	c1.6,0,3.2-0.8,4-3.2l20.8-74.4c3.2-10.4,5.6-20.8,7.2-29.6c1.6,8.8,4,19.2,6.4,29.6l18.4,74.4c0.8,1.6,2.4,3.2,4,3.2H296
	c1.6,0,3.2-0.8,4-3.2l40.8-144c0-1.6,0-2.4-0.8-3.2C339.2,136.8,337.6,136,336.8,136z"/>
<g>
</g>
<g>
</g>
<g>
</g>
<g>
</g>
<g>
</g>
<g>
</g>
<g>
</g>
<g>
</g>
<g>
</g>
<g>
</g>
<g>
</g>
<g>
</g>
<g>
</g>
<g>
</g>
<g>
</g>
</svg>
